<?xml version="1.0" encoding="UTF-8"?>
<svg version="1.1" xmlns="http://www.w3.org/2000/svg" width="512" height="512">
<path d="M0 0 C6.25125982 3.82021433 8.48698195 7.42795788 11.4375 14.3125 C11.4375 19.5925 11.4375 24.8725 11.4375 30.3125 C51.0375 30.3125 90.6375 30.3125 131.4375 30.3125 C131.4375 25.0325 131.4375 19.7525 131.4375 14.3125 C133.8980034 7.31544345 136.07977303 3.7006737 142.5703125 0.15234375 C149.02784457 -2.75219473 157.15735752 -2.84698132 163.9609375 -1.00390625 C169.72609051 1.65778317 174.18662853 6.31017607 176.4375 12.3125 C177.4604565 16.404326 177.47793594 20.3383023 177.4609375 24.53125 C177.45755371 25.61341797 177.45416992 26.69558594 177.45068359 27.81054688 C177.44633301 28.63619141 177.44198242 29.46183594 177.4375 30.3125 C178.49026123 30.29155273 179.54302246 30.27060547 180.62768555 30.24902344 C184.59547913 30.17571679 188.56321511 30.13037676 192.53149414 30.09277344 C194.23732625 30.07286163 195.94309198 30.04572187 197.64868164 30.01074219 C208.37773255 29.79647627 217.3551175 30.26455117 227.4375 34.3125 C228.78980713 34.84895142 228.78980713 34.84895142 230.16943359 35.39624023 C244.61882062 41.46449842 254.62709476 55.12540466 260.39453125 69.16015625 C262.82501075 76.50621226 263.73707843 83.42798755 263.75634766 91.14672852 C263.76639328 92.08438553 263.7764389 93.02204254 263.78678894 93.9881134 C263.81742758 97.05587203 263.83460199 100.12354417 263.8515625 103.19140625 C263.87028971 105.33089431 263.88986426 107.4703751 263.9102478 109.60984802 C263.96141091 115.21733299 264.00112107 120.82484186 264.03839111 126.43243408 C264.07853026 132.1639998 264.12957726 137.89546744 264.1796875 143.62695312 C264.27625933 154.85539969 264.36072375 166.08390184 264.4375 177.3125 C265.47358902 177.85669083 266.50967804 178.40088165 267.5771637 178.96156311 C268.94678608 179.68524301 270.31632409 180.4090826 271.68579102 181.13305664 C272.70831844 181.66931545 272.70831844 181.66931545 273.75150299 182.21640778 C293.0247511 192.4278044 306.97773972 210.78290778 313.83544922 231.31494141 C320.97387603 254.99969736 317.87499735 279.17255948 306.625 301 C295.00904398 321.3944266 276.47392602 335.46395948 254.1953125 342.30859375 C242.54333022 345.28568947 230.87343842 345.75944044 218.94921875 344.46875 C216.10492806 344.34219647 213.72332804 344.46139095 210.92318344 344.79437733 C205.32197624 345.38000621 199.78262578 345.45489241 194.15484619 345.44621277 C193.06178783 345.44847833 191.96872947 345.45074388 190.84254813 345.45307809 C187.20263834 345.45937671 183.56276618 345.4585914 179.92285156 345.45776367 C177.3037308 345.46075774 174.68461047 345.46416084 172.06549072 345.46794128 C165.70272215 345.47621944 159.33996284 345.47899483 152.97718933 345.47955366 C147.80115457 345.48003015 142.62512285 345.48209153 137.44908905 345.48525429 C122.74863066 345.49405298 108.04817955 345.49867487 93.34771851 345.49792381 C92.55653585 345.49788386 91.7653532 345.4978439 90.95019531 345.49780273 C90.15803791 345.49776185 89.36588052 345.49772097 88.54971835 345.49767885 C75.71727785 345.49727257 62.88486672 345.50683982 50.05243471 345.5209411 C36.85124357 345.53533224 23.65006673 345.54220979 10.44886756 345.54134732 C3.04742424 345.54101631 -4.35398828 345.54372143 -11.7554245 345.55452538 C-18.71908367 345.56462582 -25.68267698 345.56426714 -32.64633942 345.55700874 C-35.19475907 345.55596625 -37.74318281 345.55830579 -40.29159546 345.5643692 C-62.7097929 345.61423283 -82.50140346 345.40115902 -100.5625 330.3125 C-101.28179687 329.71824219 -102.00109375 329.12398438 -102.7421875 328.51171875 C-114.24108314 318.06427854 -120.03300019 302.867445 -120.93562317 287.56031799 C-121.12735127 282.22874403 -121.10425922 276.89860277 -121.08007812 271.56445312 C-121.08551136 269.52896121 -121.0926407 267.49347323 -121.10131836 265.45799255 C-121.11941176 259.97653577 -121.11254241 254.49538322 -121.09980202 249.01392174 C-121.08960134 243.249223 -121.09908717 237.48454851 -121.10534668 231.71984863 C-121.11260264 222.04316583 -121.10308941 212.36660556 -121.08398438 202.68994141 C-121.06221969 191.53811907 -121.06927251 180.38658937 -121.09129 169.23477411 C-121.10950264 159.62151685 -121.11197374 150.00834714 -121.10153532 140.39507818 C-121.09533254 134.67036494 -121.09437552 128.94578877 -121.10768127 123.22108459 C-121.11932488 117.83639543 -121.11106008 112.45207975 -121.08810425 107.0674305 C-121.08286229 105.10359883 -121.08425241 103.13973516 -121.09315491 101.17591667 C-121.18037951 79.96211835 -117.39416958 62.31310014 -102.67578125 46.25390625 C-91.98366425 35.80618049 -77.49489773 30.12113871 -62.6875 29.8984375 C-61.87756592 29.87907135 -61.06763184 29.8597052 -60.2331543 29.8397522 C-57.67637266 29.78053998 -55.11954455 29.73380754 -52.5625 29.6875 C-50.8163879 29.64926633 -49.07029358 29.61021157 -47.32421875 29.5703125 C-43.0704589 29.47488748 -38.81661096 29.39064451 -34.5625 29.3125 C-34.57120117 28.56846924 -34.57990234 27.82443848 -34.58886719 27.05786133 C-34.59563477 26.0758374 -34.60240234 25.09381348 -34.609375 24.08203125 C-34.61807617 23.11112549 -34.62677734 22.14021973 -34.63574219 21.13989258 C-34.46732569 14.63845444 -32.74436947 9.39855747 -28.5625 4.3125 C-20.68602068 -2.34114691 -9.68994319 -4.60365117 0 0 Z M-15.5625 18.3125 C-15.77473494 21.22983431 -15.86646164 24.04982419 -15.86328125 26.96875 C-15.86756638 27.82682251 -15.8718515 28.68489502 -15.87626648 29.56896973 C-15.88201408 31.38467526 -15.88250688 33.20040382 -15.87817383 35.01611328 C-15.87501248 37.80150399 -15.89847178 40.58583437 -15.92382812 43.37109375 C-15.92610086 45.13281115 -15.92680474 46.89453143 -15.92578125 48.65625 C-15.934991 49.49273071 -15.94420074 50.32921143 -15.95368958 51.19104004 C-15.96810277 53.78023638 -15.96810277 53.78023638 -15.5625 57.3125 C-12.79504916 59.61325262 -12.79504916 59.61325262 -9.9375 59.0625 C-9.15375 58.815 -8.37 58.5675 -7.5625 58.3125 C-5.9323028 55.0521056 -6.39942579 51.4578944 -6.39453125 47.875 C-6.39120285 47.03912354 -6.38787445 46.20324707 -6.38444519 45.34204102 C-6.37937893 43.57341055 -6.37703677 41.80477052 -6.37719727 40.03613281 C-6.3750088 37.32340865 -6.35684473 34.61108977 -6.33789062 31.8984375 C-6.3349571 30.18229306 -6.33297203 28.46614669 -6.33203125 26.75 C-6.32484573 25.93539307 -6.31766022 25.12078613 -6.31025696 24.28149414 C-6.14025538 19.82550175 -6.14025538 19.82550175 -8.5625 16.3125 C-12.5299509 15.87780472 -12.5299509 15.87780472 -15.5625 18.3125 Z M149.4375 18.3125 C149.22530117 21.14615608 149.13353431 23.87958021 149.13671875 26.71484375 C149.13243362 27.54834854 149.1281485 28.38185333 149.12373352 29.24061584 C149.11798565 31.0050465 149.11749332 32.76950085 149.12182617 34.53393555 C149.12498355 37.23592533 149.10154255 39.93681778 149.07617188 42.63867188 C149.07389869 44.35156112 149.07319547 46.06445331 149.07421875 47.77734375 C149.065009 48.5867894 149.05579926 49.39623505 149.04631042 50.23020935 C148.97270108 54.42874305 148.97270108 54.42874305 150.8006134 58.0537262 C152.43210253 59.58131819 152.43210253 59.58131819 155 59.25 C157.48213391 58.54931334 157.48213391 58.54931334 158.57104492 56.75024414 C159.79264749 53.31330368 159.74274599 49.97423621 159.73828125 46.37109375 C159.74256638 45.60700699 159.7468515 44.84292023 159.75126648 44.05567932 C159.75699707 42.44443756 159.75751941 40.83316992 159.75317383 39.22192383 C159.75000632 36.75492488 159.77351322 34.28911706 159.79882812 31.82226562 C159.80110048 30.25520985 159.80180491 28.68815084 159.80078125 27.12109375 C159.809991 26.38354355 159.81920074 25.64599335 159.82868958 24.88609314 C159.80015865 20.8725053 159.80015865 20.8725053 158.07495117 17.34399414 C154.74710553 15.24765482 152.14062201 15.60937799 149.4375 18.3125 Z M-94.765625 64.7421875 C-98.99451884 70.79134434 -101.5625 76.93233867 -101.5625 84.3125 C12.9475 84.3125 127.4575 84.3125 245.4375 84.3125 C242.41039543 73.21311659 238.97186228 63.34388634 229.4375 56.3125 C220.79285916 51.38258482 213.70170148 48.1428039 203.609375 48.21484375 C202.86036926 48.2162587 202.11136353 48.21767365 201.33966064 48.21913147 C198.95556588 48.22471341 196.57156622 48.23726255 194.1875 48.25 C192.56770969 48.25501734 190.94791791 48.25957984 189.328125 48.26367188 C185.36454688 48.27467692 181.40103955 48.29192909 177.4375 48.3125 C177.26935791 49.54581055 177.10121582 50.77912109 176.92797852 52.04980469 C174.85409625 66.86712377 174.85409625 66.86712377 170.296875 71.0859375 C163.86653456 75.32780073 157.12864962 77.46478415 149.4375 76.3125 C141.83055142 74.40389738 137.51890215 71.11483692 133.4375 64.3125 C132.4475 56.3925 132.4475 56.3925 131.4375 48.3125 C91.8375 48.3125 52.2375 48.3125 11.4375 48.3125 C10.7775 53.5925 10.1175 58.8725 9.4375 64.3125 C4.92655109 71.07892336 4.92655109 71.07892336 1.375 73.125 C0.70339844 73.52332031 0.03179687 73.92164063 -0.66015625 74.33203125 C-6.34324291 77.26109645 -13.0027975 77.26794162 -19.109375 75.62890625 C-25.08767347 73.21150704 -28.26463416 70.07726912 -31.62109375 64.578125 C-32.91872987 61.45518329 -33.25352713 58.4102907 -33.6875 55.0625 C-33.85507813 53.79921875 -34.02265625 52.5359375 -34.1953125 51.234375 C-34.31648438 50.27015625 -34.43765625 49.3059375 -34.5625 48.3125 C-39.20314472 48.21252754 -43.84314272 48.14052034 -48.48461914 48.09277344 C-50.05862365 48.07283916 -51.63255589 48.04568129 -53.20629883 48.01074219 C-70.1039739 47.64538705 -83.42802126 51.36381508 -94.765625 64.7421875 Z M-102.5625 102.3125 C-102.624375 133.29125 -102.68625 164.27 -102.75 196.1875 C-102.77731201 205.96358887 -102.80462402 215.73967773 -102.83276367 225.81201172 C-102.84279793 234.58692774 -102.84279793 234.58692774 -102.84883118 243.36184692 C-102.85162239 247.26562633 -102.86284998 251.16928294 -102.87922668 255.07302856 C-102.89986436 260.0588213 -102.90596229 265.04443647 -102.90171683 270.03026795 C-102.90260407 271.85610583 -102.90851716 273.68195016 -102.92014539 275.50775123 C-103.01339492 290.86785448 -101.18434177 303.52559155 -90.1875 315.125 C-81.1116489 323.58385245 -71.40890426 326.7884165 -59.14109802 326.67326355 C-57.62273247 326.67710846 -57.62273247 326.67710846 -56.07369286 326.68103105 C-52.70187688 326.68594918 -49.33051456 326.66950829 -45.95874023 326.65307617 C-43.53379833 326.65222948 -41.10885565 326.65270587 -38.68391418 326.65440369 C-33.47347616 326.65508554 -28.26313959 326.64660913 -23.05273247 326.62969017 C-15.51949399 326.60524464 -7.98630992 326.59748924 -0.45303608 326.5937262 C11.77100498 326.58717039 23.99498578 326.56723296 36.21899414 326.53881836 C48.08910827 326.51125518 59.959206 326.49003268 71.8293457 326.47729492 C72.5617821 326.47650675 73.2942185 326.47571858 74.04884995 326.47490653 C77.72349566 326.47099124 81.3981415 326.46720016 85.0727874 326.46347082 C115.52773474 326.43240205 145.98260898 326.37936609 176.4375 326.3125 C173.08619572 322.94217495 173.08619572 322.94217495 169.6640625 319.64453125 C154.1897769 304.96283101 145.31305675 283.43636944 144.234375 262.33984375 C143.85567128 242.58732889 148.61975719 223.36128654 160.4375 207.3125 C161.43910156 205.94351563 161.43910156 205.94351563 162.4609375 204.546875 C176.62418778 186.24202446 195.86583431 176.07444428 218.4375 172.3125 C227.3475 172.3125 236.2575 172.3125 245.4375 172.3125 C245.4375 149.2125 245.4375 126.1125 245.4375 102.3125 C130.5975 102.3125 15.7575 102.3125 -102.5625 102.3125 Z M178.1875 212.6875 C166.08968325 226.97606827 159.96207291 245.61607236 161.4375 264.3125 C164.19861144 283.35985472 172.59383292 300.62921596 188.02880859 312.54052734 C205.23550179 325.11987247 224.09269352 328.35196484 245.05859375 325.88671875 C256.62196591 323.32928366 267.6555415 317.15839704 276.4375 309.3125 C277.12328125 308.70792969 277.8090625 308.10335937 278.515625 307.48046875 C291.32631708 295.4765569 298.23087325 278.98269815 299.7578125 261.68359375 C300.35754796 242.83190912 294.41420688 225.49856917 281.8125 211.4375 C272.51638986 201.62716218 261.29603749 195.39294256 248.4375 191.3125 C247.35855469 190.94511719 247.35855469 190.94511719 246.2578125 190.5703125 C221.51676549 183.54269993 195.06342905 194.63786911 178.1875 212.6875 Z " fill="#FFA720" transform="translate(157.5625,84.6875)"/>
<path d="M0 0 C2.1875 1.625 2.1875 1.625 3.1875 3.625 C3.27652493 4.98345193 3.30510132 6.34615974 3.30102539 7.70751953 C3.30094986 8.54824005 3.30087433 9.38896057 3.30079651 10.25515747 C3.29305458 11.61772171 3.29305458 11.61772171 3.28515625 13.0078125 C3.2837413 13.93721649 3.28232635 14.86662048 3.28086853 15.82418823 C3.27526053 18.79949124 3.26270668 21.77471964 3.25 24.75 C3.24498603 26.76432183 3.24042295 28.77864484 3.23632812 30.79296875 C3.2252885 35.73700802 3.20801849 40.68099135 3.1875 45.625 C4.01982147 45.60834541 4.01982147 45.60834541 4.86895752 45.59135437 C10.64375716 45.48074371 16.41825603 45.40532648 22.19384766 45.3503418 C24.34924542 45.32519603 26.50455791 45.29107476 28.65966797 45.24780273 C31.75770092 45.18715492 34.85460681 45.15879088 37.953125 45.13671875 C38.91679993 45.11091232 39.88047485 45.0851059 40.87335205 45.05851746 C47.5690891 45.05570978 47.5690891 45.05570978 50.79394531 48.02441406 C52.94974601 52.0474675 52.76330168 54.09056179 52.1875 58.625 C50.31734906 61.05619623 48.90611655 62.26569173 46.1875 63.625 C44.48836031 63.73073313 42.78514501 63.77376413 41.08276367 63.78613281 C40.01793259 63.79574036 38.9531015 63.8053479 37.85600281 63.81524658 C36.70082657 63.81949646 35.54565033 63.82374634 34.35546875 63.828125 C33.17157059 63.83382507 31.98767242 63.83952515 30.76789856 63.84539795 C28.25860491 63.85485821 25.74929877 63.86138599 23.23999023 63.86523438 C19.40130908 63.87493353 15.56316462 63.9059455 11.72460938 63.9375 C9.28906569 63.94403049 6.85351816 63.94928078 4.41796875 63.953125 C3.2688652 63.9654718 2.11976166 63.9778186 0.93583679 63.99053955 C-0.13845078 63.98753845 -1.21273834 63.98453735 -2.31958008 63.98144531 C-3.26174881 63.98509094 -4.20391754 63.98873657 -5.17463684 63.99249268 C-8.37056686 63.54725318 -10.21738147 62.51896638 -12.8125 60.625 C-15.02467443 57.30673836 -15.0682224 56.25652439 -15.0871582 52.39086914 C-15.09669022 51.32288589 -15.10622223 50.25490265 -15.11604309 49.15455627 C-15.11513168 48.00140427 -15.11422028 46.84825226 -15.11328125 45.66015625 C-15.11756638 44.47530136 -15.1218515 43.29044647 -15.12626648 42.06968689 C-15.13201343 39.56217081 -15.13250738 37.05463806 -15.12817383 34.54711914 C-15.12501542 30.70625415 -15.14846432 26.86616025 -15.17382812 23.02539062 C-15.17610118 20.59114681 -15.17680458 18.15690091 -15.17578125 15.72265625 C-15.184991 14.57152847 -15.19420074 13.4204007 -15.20368958 12.23439026 C-15.19434639 10.62768715 -15.19434639 10.62768715 -15.18481445 8.98852539 C-15.18544388 8.04715225 -15.1860733 7.10577911 -15.1867218 6.13587952 C-14.74065115 3.14292279 -13.89969761 1.79127103 -11.8125 -0.375 C-7.41171943 -1.84192686 -4.22363351 -2.06488749 0 0 Z " fill="#FFA720" transform="translate(393.8125,288.375)"/>
<path d="M0 0 C0.88779648 -0.00637985 1.77559296 -0.0127597 2.69029236 -0.01933289 C4.12472435 -0.02100212 4.12472435 -0.02100212 5.58813477 -0.02270508 C6.57322525 -0.02603348 7.55831573 -0.02936188 8.57325745 -0.03279114 C10.65706922 -0.03785467 12.74088911 -0.04019964 14.82470703 -0.04003906 C18.01356348 -0.04222537 21.20207392 -0.06038676 24.39086914 -0.0793457 C26.4149565 -0.08227976 28.4390455 -0.08426447 30.46313477 -0.08520508 C31.89453041 -0.09598335 31.89453041 -0.09598335 33.35484314 -0.10697937 C34.6912661 -0.10236443 34.6912661 -0.10236443 36.0546875 -0.09765625 C36.83617661 -0.09908127 37.61766571 -0.10050629 38.4228363 -0.10197449 C40.92143769 0.18280712 42.4738165 0.79671859 44.59204102 2.14526367 C46.70416605 5.31345123 46.92360566 7.27745619 47.15063477 11.01245117 C46.21216855 14.59568581 44.5207609 15.90333929 41.59204102 18.14526367 C37.97754576 18.88393543 34.42300831 18.82238325 30.74438477 18.77416992 C29.17111168 18.77778786 29.17111168 18.77778786 27.5660553 18.78147888 C25.3529176 18.78050099 23.13975527 18.76712132 20.92675781 18.7421875 C17.53764929 18.70784583 14.15114346 18.72154104 10.76196289 18.7409668 C8.61025908 18.73406925 6.45856199 18.7243977 4.30688477 18.71166992 C2.78646828 18.71910973 2.78646828 18.71910973 1.2353363 18.72669983 C-5.76229686 18.60937813 -5.76229686 18.60937813 -9.04663086 16.24853516 C-11.36998056 12.65892653 -11.04395734 9.26411014 -10.40795898 5.14526367 C-7.98269056 0.52570476 -4.94465225 0.02414266 0 0 Z " fill="#FFA720" transform="translate(98.407958984375,369.854736328125)"/>
<path d="M0 0 C1.047892 -0.00619858 2.095784 -0.01239716 3.1754303 -0.01878357 C5.3903002 -0.0258836 7.60522346 -0.02270459 9.82006836 -0.01000977 C13.20721843 0.00384311 16.59159946 -0.03019902 19.97851562 -0.06835938 C22.13151109 -0.06931069 24.28451002 -0.06745107 26.4375 -0.0625 C27.44908676 -0.07575821 28.46067352 -0.08901642 29.50291443 -0.10267639 C34.28052108 -0.03949417 36.5385747 -0.00642203 40.42382812 2.97460938 C43.29524762 6.97290284 42.97514276 8.73650071 42.28515625 13.56640625 C40.41500531 15.99760248 39.0037728 17.20709798 36.28515625 18.56640625 C34.86177876 18.67078069 33.43373629 18.71504442 32.0065918 18.72753906 C31.12194748 18.73714661 30.23730316 18.74675415 29.32585144 18.75665283 C27.8883831 18.76302765 27.8883831 18.76302765 26.421875 18.76953125 C24.94567436 18.77808136 24.94567436 18.77808136 23.43965149 18.7868042 C21.35406573 18.79626175 19.26846498 18.80279117 17.18286133 18.80664062 C13.99598999 18.81633527 10.80976646 18.84734725 7.62304688 18.87890625 C5.59766008 18.88543733 3.57226867 18.89068739 1.546875 18.89453125 C0.59463547 18.90687805 -0.35760406 18.91922485 -1.33869934 18.9319458 C-6.25462279 18.91544523 -9.76853864 18.86226559 -13.71484375 15.56640625 C-14.86477741 13.26653894 -14.94653665 11.75171537 -15.02734375 9.19140625 C-15.06472656 8.42054688 -15.10210937 7.6496875 -15.140625 6.85546875 C-13.68175906 -0.98760871 -6.351628 -0.03108021 0 0 Z " fill="#FFA720" transform="translate(102.71484375,316.43359375)"/>
<path d="M0 0 C1.53642151 -0.00929787 1.53642151 -0.00929787 3.10388184 -0.01878357 C5.26569673 -0.02587557 7.4275663 -0.0227186 9.58935547 -0.01000977 C12.89522819 0.00386001 16.1982723 -0.03023069 19.50390625 -0.06835938 C21.60677153 -0.06931056 23.70964034 -0.06745177 25.8125 -0.0625 C27.29236389 -0.08238731 27.29236389 -0.08238731 28.80212402 -0.10267639 C33.52247627 -0.03868146 35.69371093 0.01691947 39.52905273 2.97460938 C42.42203141 6.96886892 42.09725304 8.72938497 41.40625 13.56640625 C39.53609906 15.99760248 38.12486655 17.20709798 35.40625 18.56640625 C33.98287251 18.67078069 32.55483004 18.71504442 31.12768555 18.72753906 C30.24304123 18.73714661 29.35839691 18.74675415 28.44694519 18.75665283 C27.00947685 18.76302765 27.00947685 18.76302765 25.54296875 18.76953125 C24.06676811 18.77808136 24.06676811 18.77808136 22.56074524 18.7868042 C20.47515948 18.79626175 18.38955873 18.80279117 16.30395508 18.80664062 C13.11708374 18.81633527 9.93086021 18.84734725 6.74414062 18.87890625 C4.71875383 18.88543733 2.69336242 18.89068739 0.66796875 18.89453125 C-0.28427078 18.90687805 -1.23651031 18.91922485 -2.21760559 18.9319458 C-7.13352904 18.91544523 -10.64744489 18.86226559 -14.59375 15.56640625 C-15.73738112 13.27914402 -15.85876932 11.73788198 -15.96875 9.19140625 C-16.01773438 8.42054688 -16.06671875 7.6496875 -16.1171875 6.85546875 C-15.59375 4.56640625 -15.59375 4.56640625 -13.72314453 2.45874023 C-9.19100208 -0.28183053 -5.20466926 -0.02616573 0 0 Z " fill="#FFA720" transform="translate(103.59375,209.43359375)"/>
<path d="M0 0 C0.88464432 -0.00960754 1.76928864 -0.01921509 2.68074036 -0.02911377 C3.63905258 -0.03336365 4.59736481 -0.03761353 5.5847168 -0.04199219 C7.06091743 -0.0505423 7.06091743 -0.0505423 8.56694031 -0.05926514 C10.65252607 -0.06872269 12.73812682 -0.07525211 14.82373047 -0.07910156 C18.01060181 -0.0887962 21.19682534 -0.11980819 24.38354492 -0.15136719 C26.40893171 -0.15789827 28.43432312 -0.16314833 30.4597168 -0.16699219 C31.41195633 -0.17933899 32.36419586 -0.19168579 33.34529114 -0.20440674 C38.26121459 -0.18790617 41.77513044 -0.13472653 45.72143555 3.16113281 C46.8713692 5.46100013 46.95312845 6.97582369 47.03393555 9.53613281 C47.09000977 10.69242187 47.09000977 10.69242187 47.1472168 11.87207031 C46.51596201 15.26578873 45.54983095 16.13611039 42.72143555 18.16113281 C39.15618557 18.78601331 35.61882496 18.74521468 32.0065918 18.72753906 C30.9586998 18.73373764 29.9108078 18.73993622 28.8311615 18.74632263 C26.61629159 18.75342266 24.40136834 18.75024365 22.18652344 18.73754883 C18.79937337 18.72369595 15.41499234 18.75773808 12.02807617 18.79589844 C9.8750807 18.79684976 7.72208178 18.79499013 5.5690918 18.79003906 C4.05171165 18.80992638 4.05171165 18.80992638 2.50367737 18.83021545 C-2.21425453 18.76782241 -4.53905903 18.70715931 -8.42138672 15.84057617 C-10.87260833 12.30407595 -10.95712134 10.38326454 -10.27856445 6.16113281 C-7.28439982 1.57008038 -5.38186769 0.04711823 0 0 Z " fill="#FFA620" transform="translate(248.278564453125,369.8388671875)"/>
<path d="M0 0 C1.04884872 -0.00241196 2.09769745 -0.00482391 3.17832947 -0.00730896 C5.39146717 -0.00633107 7.6046295 0.0070486 9.81762695 0.03198242 C13.20673547 0.06632409 16.59324131 0.05262889 19.98242188 0.03320312 C22.13412569 0.04010067 24.28582277 0.04977222 26.4375 0.0625 C27.95791649 0.0550602 27.95791649 0.0550602 29.50904846 0.04747009 C36.50668162 0.16479179 36.50668162 0.16479179 39.79101562 2.52563477 C42.11436533 6.11524339 41.7883421 9.51005978 41.15234375 13.62890625 C39.4254533 16.91822139 38.71026365 17.44293295 35.15234375 18.62890625 C33.69094028 18.73456928 32.22535486 18.78736226 30.76025391 18.8059082 C29.43340073 18.82516106 29.43340073 18.82516106 28.07974243 18.84480286 C27.12659149 18.85218979 26.17344055 18.85957672 25.19140625 18.8671875 C24.20868744 18.87525925 23.22596863 18.88333099 22.21347046 18.89164734 C20.133868 18.9054778 18.05424294 18.9162046 15.97460938 18.92407227 C12.7964381 18.94130273 9.61930243 18.98520049 6.44140625 19.02929688 C4.42058056 19.03942254 2.39974604 19.04793903 0.37890625 19.0546875 C-1.04474747 19.08094963 -1.04474747 19.08094963 -2.49716187 19.10774231 C-6.80886481 19.09358297 -9.18741309 19.03698703 -12.92431641 16.72729492 C-15.41434742 14.01063884 -15.80183995 13.03361689 -16.22265625 9.31640625 C-15.84765625 5.62890625 -15.84765625 5.62890625 -14.00219727 2.93774414 C-9.42229091 -0.41433189 -5.5418789 -0.0726338 0 0 Z " fill="#FFA720" transform="translate(253.84765625,316.37109375)"/>
<path d="M0 0 C1.33180801 -0.00956978 1.33180801 -0.00956978 2.69052124 -0.01933289 C3.65197052 -0.02044571 4.6134198 -0.02155853 5.60400391 -0.02270508 C7.08376205 -0.02769768 7.08376205 -0.02769768 8.59341431 -0.03279114 C10.68320244 -0.03786018 12.77299869 -0.04019947 14.86279297 -0.04003906 C18.06052002 -0.04222264 21.25790057 -0.06037065 24.45556641 -0.0793457 C26.48421106 -0.08228019 28.51285735 -0.08426462 30.54150391 -0.08520508 C31.49890472 -0.09239059 32.45630554 -0.09957611 33.44271851 -0.10697937 C34.783983 -0.10236443 34.783983 -0.10236443 36.15234375 -0.09765625 C36.93684906 -0.09908127 37.72135437 -0.10050629 38.52963257 -0.10197449 C41.03199238 0.18235347 42.58461903 0.79425744 44.70556641 2.14526367 C46.81769144 5.31345123 47.03713105 7.27745619 47.26416016 11.01245117 C46.32592429 14.5948063 44.63262829 15.90256223 41.70556641 18.14526367 C38.09253221 18.89451518 34.53743443 18.84614065 30.85791016 18.80932617 C29.80906143 18.8141098 28.76021271 18.81889343 27.67958069 18.82382202 C25.46646623 18.82721888 23.25330146 18.81803158 21.0402832 18.79711914 C17.65088296 18.77032546 14.2647864 18.79688987 10.87548828 18.82885742 C8.72378826 18.82555381 6.57209029 18.8191486 4.42041016 18.80932617 C2.89999367 18.8245079 2.89999367 18.8245079 1.34886169 18.83999634 C-5.6625052 18.72300504 -5.6625052 18.72300504 -8.9309082 15.73486328 C-11.04764851 11.71476222 -10.86797877 9.66193193 -10.29443359 5.14526367 C-7.25156698 1.18953707 -4.87003797 0.0237109 0 0 Z " fill="#FFA720" transform="translate(173.29443359375,369.854736328125)"/>
<path d="M0 0 C1.53642151 -0.00717545 1.53642151 -0.00717545 3.10388184 -0.01449585 C5.26572204 -0.01789264 7.42761375 -0.00870578 9.58935547 0.01220703 C12.8953726 0.03897443 16.19799453 0.01245033 19.50390625 -0.01953125 C21.60677832 -0.01622711 23.70964827 -0.00982081 25.8125 0 C27.29236389 -0.01518173 27.29236389 -0.01518173 28.80212402 -0.03067017 C33.51936716 0.04975257 35.69805163 0.11742482 39.52905273 3.07446289 C42.42304129 7.06672932 42.09708761 8.82819921 41.40625 13.6640625 C39.53609906 16.09525873 38.12486655 17.30475423 35.40625 18.6640625 C33.97740712 18.76346826 32.54409601 18.80235279 31.11181641 18.80932617 C29.78000839 18.81889595 29.78000839 18.81889595 28.42129517 18.82865906 C27.45984589 18.82977188 26.49839661 18.8308847 25.5078125 18.83203125 C24.02805435 18.83702385 24.02805435 18.83702385 22.5184021 18.84211731 C20.42861396 18.84718635 18.33881772 18.84952564 16.24902344 18.84936523 C13.05129638 18.85154881 9.85391584 18.86969682 6.65625 18.88867188 C4.62760535 18.89160637 2.59895906 18.89359079 0.5703125 18.89453125 C-0.86578873 18.90530952 -0.86578873 18.90530952 -2.3309021 18.91630554 C-3.6721666 18.9116906 -3.6721666 18.9116906 -5.04052734 18.90698242 C-5.82503265 18.90840744 -6.60953796 18.90983246 -7.41781616 18.91130066 C-9.92017597 18.6269727 -11.47280263 18.01506873 -13.59375 16.6640625 C-15.70587504 13.49587494 -15.92531464 11.53186998 -16.15234375 7.796875 C-14.01351285 -0.36957025 -6.92369981 -0.07102934 0 0 Z " fill="#FFA720" transform="translate(178.59375,316.3359375)"/>
<path d="M0 0 C0.79795486 -0.00960754 1.59590973 -0.01921509 2.41804504 -0.02911377 C3.69937569 -0.03548859 3.69937569 -0.03548859 5.0065918 -0.04199219 C6.3382563 -0.0505423 6.3382563 -0.0505423 7.69682312 -0.05926514 C9.57374892 -0.06870019 11.45069117 -0.07524317 13.32763672 -0.07910156 C16.18511168 -0.08879696 19.04186394 -0.11983014 21.89916992 -0.15136719 C23.72663963 -0.15789891 25.55411446 -0.16314872 27.3815918 -0.16699219 C28.6538134 -0.18551239 28.6538134 -0.18551239 29.95173645 -0.20440674 C35.34142233 -0.18437361 39.12646384 0.58420457 43.89331055 3.16113281 C45.0432442 5.46100013 45.12500345 6.97582369 45.20581055 9.53613281 C45.26188477 10.69242187 45.26188477 10.69242187 45.3190918 11.87207031 C44.68783701 15.26578873 43.72170595 16.13611039 40.89331055 18.16113281 C37.32806057 18.78601331 33.79069996 18.74521468 30.1784668 18.72753906 C29.1305748 18.73373764 28.0826828 18.73993622 27.0030365 18.74632263 C24.78816659 18.75342266 22.57324334 18.75024365 20.35839844 18.73754883 C16.97124837 18.72369595 13.58686734 18.75773808 10.19995117 18.79589844 C8.0469557 18.79684976 5.89395678 18.79499013 3.7409668 18.79003906 C2.22358665 18.80992638 2.22358665 18.80992638 0.67555237 18.83021545 C-4.04237953 18.76782241 -6.36718403 18.70715931 -10.24951172 15.84057617 C-12.70073333 12.30407595 -12.78524634 10.38326454 -12.10668945 6.16113281 C-9.30414419 1.55695131 -9.30414419 1.55695131 -6.22273254 0.53839111 C-4.10645402 0.16109084 -2.14835459 0.02100474 0 0 Z " fill="#FFA620" transform="translate(250.106689453125,262.8388671875)"/>
<path d="M0 0 C1.20661537 -0.00956978 1.20661537 -0.00956978 2.43760681 -0.01933289 C3.29810135 -0.02044571 4.15859589 -0.02155853 5.04516602 -0.02270508 C5.9376857 -0.02603348 6.83020538 -0.02936188 7.74977112 -0.03279114 C9.63509609 -0.03784762 11.52042998 -0.04019986 13.40576172 -0.04003906 C16.28506241 -0.04222569 19.16397994 -0.06039529 22.04321289 -0.0793457 C23.87719596 -0.08227988 25.71118084 -0.08426451 27.54516602 -0.08520508 C28.83287148 -0.09598335 28.83287148 -0.09598335 30.14659119 -0.10697937 C35.39025216 -0.08700221 39.65237524 0.08842506 43.67407227 3.83276367 C45.39719255 7.18831371 45.38365316 9.42543732 44.86157227 13.14526367 C42.81502614 16.1084554 41.19663287 17.87572209 37.58078003 18.60574341 C34.71331972 18.79180037 31.88722065 18.81182846 29.01391602 18.77416992 C27.44064293 18.77778786 27.44064293 18.77778786 25.83558655 18.78147888 C23.62244885 18.78050099 21.40928652 18.76712132 19.19628906 18.7421875 C15.80718054 18.70784583 12.42067471 18.72154104 9.03149414 18.7409668 C6.87979033 18.73406925 4.72809324 18.7243977 2.57641602 18.71166992 C1.05599953 18.71910973 1.05599953 18.71910973 -0.49513245 18.72669983 C-7.49331609 18.6093689 -7.49331609 18.6093689 -10.77490234 16.24853516 C-13.10379825 12.65615588 -12.89580869 9.26541607 -12.13842773 5.14526367 C-8.95746855 0.60103626 -5.28072969 0.02857632 0 0 Z " fill="#FFA620" transform="translate(100.138427734375,262.854736328125)"/>
<path d="M0 0 C1.20661537 -0.00956978 1.20661537 -0.00956978 2.43760681 -0.01933289 C3.29810135 -0.02044571 4.15859589 -0.02155853 5.04516602 -0.02270508 C5.9376857 -0.02603348 6.83020538 -0.02936188 7.74977112 -0.03279114 C9.63509609 -0.03784762 11.52042998 -0.04019986 13.40576172 -0.04003906 C16.28506241 -0.04222569 19.16397994 -0.06039529 22.04321289 -0.0793457 C23.87719596 -0.08227988 25.71118084 -0.08426451 27.54516602 -0.08520508 C28.83287148 -0.09598335 28.83287148 -0.09598335 30.14659119 -0.10697937 C35.39025216 -0.08700221 39.65237524 0.08842506 43.67407227 3.83276367 C45.39719255 7.18831371 45.38365316 9.42543732 44.86157227 13.14526367 C42.81453353 16.10674165 41.19219433 17.87261229 37.58078003 18.61260986 C34.71362892 18.8084627 31.88767095 18.83807874 29.01391602 18.80932617 C27.96506729 18.8141098 26.91621857 18.81889343 25.83558655 18.82382202 C23.62247209 18.82721888 21.40930732 18.81803158 19.19628906 18.79711914 C15.80688882 18.77032546 12.42079226 18.79688987 9.03149414 18.82885742 C6.87979412 18.82555381 4.72809615 18.8191486 2.57641602 18.80932617 C1.05599953 18.8245079 1.05599953 18.8245079 -0.49513245 18.83999634 C-7.48169837 18.72341887 -7.48169837 18.72341887 -10.77685547 15.82250977 C-12.57723399 12.28244326 -12.69907806 10.06981596 -12.13842773 6.14526367 C-9.33668181 1.54239537 -9.33668181 1.54239537 -6.25645447 0.52153015 C-4.12649916 0.14314457 -2.16210367 0.01170008 0 0 Z " fill="#FFA720" transform="translate(175.138427734375,262.854736328125)"/>
</svg>
